# xmcd
#
# Track frame offsets: 
#        150
#        24327
#        45057
#        69965
#        102445
#        170220
#        190372
#        207027
#        226630
#        247727
#        257942
#        266312
#        277712
#
# Disc length: 3826 seconds
#
# Revision: 5
# Processed by: cddbd v1.5.2PL0 Copyright (c) Steve Scherf et al.
# Submitted via: ExactAudioCopy v1.0b3
#
DISCID=9d0ef00d
DTITLE=Gabriel Fauré - Intégrale de l'œuvre pour piano seul – CD2 - No
DTITLE=cturnes n° 10 à 13, Impromptus et al.
DYEAR=1988
DGENRE=Moderne
TTITLE0=Nocturne n° 10  en mi mineur op. 99 - Quasi adagio
TTITLE1=Nocturne n° 11  en fa dièse mineur op. 104 n° 1 - Molto modera
TTITLE1=to
TTITLE2=Nocturne n° 12  en mi mineur op. 107 - Andante moderato
TTITLE3=Nocturne n° 13  en si mineur op. 119 - Andante
TTITLE4=Thème et variations op. 73  en ut dièse mineur
TTITLE5=Impromptu n° 1  en mi bémol majeur op. 25 - Allegro ma non tro
TTITLE5=ppo
TTITLE6=Impromptu n° 2  en fa mineur op. 31 - Allegro 
TTITLE7=Impromptu n° 3  en la bémol majeur op. 34 - Allegro
TTITLE8=Impromptu n° 4  en ré bémol majeur op. 91 - Allegro non troppo
TTITLE9=Impromptu n° 5  en fa dièse mineur op. 102 - Allegro vivo
TTITLE10=Romance sans paroles op. 17 n° 1  en la bémol majeur - Andant
TTITLE10=e, quasi allegretto
TTITLE11=Romance sans paroles op. 17 n° 2  en la mineur - Allegro molt
TTITLE11=o
TTITLE12=Romance sans paroles op. 17 n° 3  en la bémol majeur - Andant
TTITLE12=e moderato
EXTD=YEAR: 1988
EXTT0=
EXTT1=
EXTT2=
EXTT3=
EXTT4=
EXTT5=
EXTT6=
EXTT7=
EXTT8=
EXTT9=
EXTT10=
EXTT11=
EXTT12=
PLAYORDER=
